# xmcd CD database file
#
# Track frame offsets:
#	150
#	18045
#	35421
#	59791
#	88669
#	119832
#	140623
#	160937
#	181096
#	197172
#
# Disc length: 2853 seconds
#
# Revision: 1
# Processed by: cddbd v1.5.2PL0 Copyright (c) Steve Scherf et al.
# Submitted via: CDex 1.79
#
DISCID=8b0b230a
DTITLE=John McRory, Bill Coon, Pat Belliveau - John McRory Trio
DYEAR=2014
DGENRE=Jazz
TTITLE0=On Green Dolphin Street
TTITLE1=Minor Detail
TTITLE2=With A Song In My Heart
TTITLE3=Recado Bossa Nova
TTITLE4=All The Things You Are
TTITLE5=My Funny Valentine
TTITLE6=Do Nothin' Till You Hear From Me
TTITLE7=Birk's Works
TTITLE8=There Will Never Be Another You
TTITLE9=Beatrice
EXTD=YEAR: 2014
EXTT0=
EXTT1=
EXTT2=
EXTT3=
EXTT4=
EXTT5=
EXTT6=
EXTT7=
EXTT8=
EXTT9=
PLAYORDER=
